<svg width="25" height="24" viewBox="0 0 25 24" fill="none" xmlns="http://www.w3.org/2000/svg">
<path d="M14.0894 3.51001L15.8494 7.03001C16.0894 7.52001 16.7294 7.99001 17.2694 8.08001L20.4594 8.61001C22.4994 8.95001 22.9794 10.43 21.5094 11.89L19.0294 14.37C18.6094 14.79 18.3794 15.6 18.5094 16.18L19.2194 19.25C19.7794 21.68 18.4894 22.62 16.3394 21.35L13.3494 19.58C12.8094 19.26 11.9194 19.26 11.3694 19.58L8.37938 21.35C6.23938 22.62 4.93938 21.67 5.49938 19.25L6.20938 16.18C6.33938 15.6 6.10938 14.79 5.68938 14.37L3.20938 11.89C1.74938 10.43 2.21938 8.95001 4.25938 8.61001L7.44938 8.08001C7.97938 7.99001 8.61938 7.52001 8.85938 7.03001L10.6194 3.51001C11.5794 1.60001 13.1394 1.60001 14.0894 3.51001Z" fill="#FFC700"/>
</svg>
