<svg width="239" height="189" viewBox="0 0 239 189" fill="none" xmlns="http://www.w3.org/2000/svg">
<path d="M-13.0013 151.844L-0.50708 144.633L-12.6683 137.613L-12.7793 137.551V123.126L-13.0013 122.997L-12.7793 122.868V108.443L-0.515976 101.361L-12.6816 94.3367L-12.7926 94.2745V79.3384L0.0346069 86.7443L0.145615 86.8064V100.979L0.154465 100.974V115.658L11.805 122.384C11.9116 122.278 12.0492 122.198 12.2002 122.158V94.0214L24.6944 86.8109V72.3853L36.5714 65.53C36.5492 65.4545 36.5358 65.379 36.5358 65.2991C36.5358 65.2192 36.5492 65.1437 36.5714 65.0726L24.8054 58.2794L24.6944 58.2173V44.0537L12.6575 51.0023V80.1065L0.562973 73.1224C0.403122 73.2822 0.185562 73.3799 -0.0541992 73.3799C-0.533722 73.3799 -0.924454 72.9892 -0.924454 72.5096C-0.924454 72.1056 -0.649155 71.7682 -0.276199 71.6705V43.805L-12.6771 36.6433L-12.7881 36.5812V21.6406L-0.276199 28.8644V28.8511L12.44 36.1904L25.1561 28.8511V43.5386L37.526 50.6826L37.637 50.7448V64.4599C38.0099 64.5576 38.2852 64.895 38.2852 65.2991C38.2852 65.7031 38.0099 66.0406 37.637 66.1382V79.8534L25.1428 87.064V101.232L37.193 108.189V94.0214L49.6871 86.8109V86.5534L49.9091 86.6821L50.1311 86.5534V86.8109L62.5143 93.9593L62.6253 94.0214V108.958L50.5307 101.973C50.3709 102.133 50.1533 102.231 49.9136 102.231C49.6694 102.231 49.4518 102.133 49.2964 101.973L37.6458 108.7V137.809L24.9297 130.469L12.6575 137.551L0.385361 144.637L12.4355 151.595L12.6575 151.466V151.724L12.8795 151.852L12.6575 151.981V166.407L0.163361 173.617V187.075C0.536316 187.173 0.811615 187.51 0.811615 187.914C0.811615 188.394 0.420883 188.784 -0.0586395 188.784C-0.538162 188.784 -0.928894 188.394 -0.928894 187.914C-0.928894 187.834 -0.915558 187.759 -0.893356 187.688L-12.6594 180.894L-12.7704 180.832V165.896L-0.276199 173.107V159.187L-13.0013 151.844ZM-0.298386 87.0595L-12.3486 80.102V94.0126L-0.298386 100.97V87.0595ZM-12.3353 137.289L-0.28508 144.247V130.336L-12.3353 123.379V137.289ZM-12.3353 122.611L-0.28508 115.653V101.743L-12.3353 108.7V122.611ZM-0.0675354 116.039L-12.1177 122.997L-6.64317 126.158L-0.0675354 129.954L11.5875 123.228C11.5697 123.157 11.552 123.081 11.552 123.001C11.552 122.921 11.5653 122.846 11.5875 122.775L-0.0675354 116.039ZM12.6487 108.7V122.153C12.7996 122.193 12.9373 122.273 13.0438 122.38L18.6693 119.13L24.6944 115.653V101.743L18.6693 105.219L12.6487 108.7ZM12.2135 51.0023L0.163361 44.0448V57.9553L12.2135 64.9128V51.0023ZM12.2135 79.3384V65.4278L0.163361 58.4704V71.6705C0.536316 71.7682 0.811615 72.1056 0.811615 72.5096C0.811615 72.5896 0.798279 72.665 0.776077 72.7361L12.2135 79.3384ZM-0.298386 29.3662L-12.3486 22.4087V36.3192L-0.298386 43.2767V29.3662ZM0.163361 43.5342L12.2135 50.4917V36.5812L0.163361 29.6237V43.5342ZM24.7033 29.6237L12.6531 36.5812V50.4917L24.6899 43.5431V43.2811L24.6988 43.2856V29.6237H24.7033ZM25.1384 44.0448V57.9553L36.7934 64.6819C36.8999 64.5754 37.0376 64.4954 37.1885 64.4555V50.9978L25.1384 44.0448ZM37.1885 79.5959V66.1382C37.0376 66.0983 36.8999 66.0228 36.7934 65.9118L25.1384 72.6384V86.5489L37.1885 79.5959ZM12.6487 94.2745V108.185L18.6737 104.709L24.6988 101.232V87.3215L12.6487 94.2745ZM62.1724 108.185V94.2745L50.1223 87.317V100.517C50.4952 100.615 50.7705 100.952 50.7705 101.356C50.7705 101.436 50.7572 101.512 50.735 101.583L62.1724 108.185ZM49.6783 100.517V87.317L37.6325 94.2745V108.185L49.0655 101.587C49.0478 101.516 49.03 101.441 49.03 101.361C49.03 100.957 49.3053 100.619 49.6783 100.517ZM37.1885 108.7L25.1384 101.743V115.653L37.1885 122.611V108.7ZM37.1885 123.126L25.1384 116.168V130.079L37.1885 137.036V123.126ZM24.6944 130.079V116.168L18.6693 119.645L13.2614 122.766C13.2791 122.837 13.2969 122.913 13.2969 122.992C13.2969 123.396 13.0216 123.734 12.6487 123.832V137.032L24.6944 130.079ZM12.2047 123.836C12.0537 123.796 11.916 123.721 11.8095 123.61L0.15892 130.336V144.247L12.2091 137.289V123.836H12.2047ZM0.154465 145.015L-0.0675354 144.886L-0.289536 145.015L-12.1177 151.844L-0.0675354 158.801L11.9827 151.844L0.154465 145.015ZM12.2047 152.23L0.154465 159.187V173.098L12.2047 166.14V152.23ZM-12.3353 166.655V180.566L-0.684677 187.293C-0.57811 187.186 -0.440491 187.106 -0.289536 187.066V173.608L-12.3353 166.655ZM61.5242 79.7202C61.5242 79.6403 61.5375 79.5648 61.5597 79.4938L49.7937 72.7006L49.6827 72.6384V43.805L38.1032 37.1184C37.9433 37.3404 37.6858 37.4869 37.3928 37.4869C36.9132 37.4869 36.5225 37.0962 36.5225 36.6167C36.5225 36.2126 36.7978 35.8752 37.1708 35.7775V21.6406L49.6649 28.8511V14.6875L62.6031 7.21944V22.1556L50.3443 29.233L62.3989 36.1949L74.0539 29.4683C74.0361 29.3972 74.0183 29.3218 74.0183 29.2418C74.0183 28.7623 74.409 28.3716 74.8886 28.3716C75.3681 28.3716 75.7588 28.7623 75.7588 29.2418C75.7588 29.6459 75.4835 29.9833 75.1106 30.081V43.2811V57.9642L87.3827 65.0504L99.4329 58.093L87.2717 51.0733L87.1607 51.0112V36.5856L86.9387 36.4568L87.1607 36.3281V22.1512L74.7776 15.0028L74.6666 14.9406V0L87.4937 7.40592L87.6047 7.46808V21.6361L99.6549 14.6786V14.4211L99.8769 14.5499L112.584 7.215V21.1832C112.735 21.2232 112.873 21.3031 112.979 21.4097L124.63 14.6831V0.00444095L137.124 7.215V7.21056L149.951 14.6209L150.062 14.6831V28.8511L162.112 21.8936V21.6361L162.334 21.7649L162.556 21.6361V21.8936L174.829 28.9754L187.545 21.6361V36.3148L199.595 43.2722V29.1042L212.524 21.6361L225.018 14.4256V29.1086L236.669 35.8352C236.829 35.6754 237.046 35.5777 237.286 35.5777C237.766 35.5777 238.156 35.9684 238.156 36.448C238.156 36.9275 237.766 37.3182 237.286 37.3182C237.042 37.3182 236.824 37.2205 236.669 37.0607L225.018 43.7873V58.4704L212.191 51.0644L212.08 51.0023V36.8342L200.03 43.7917V58.4704L187.935 51.4862C187.829 51.5928 187.691 51.6727 187.54 51.7127V65.4278L174.602 72.8959V58.4704L162.108 65.6809V50.7448L174.38 43.6585L162.334 36.7055L149.618 44.0448V29.3617L137.568 22.4042V50.7403L149.951 57.8887L150.062 57.9509V72.887L137.968 65.9029C137.808 66.0628 137.59 66.1604 137.351 66.1604C136.871 66.1604 136.48 65.7697 136.48 65.2902C136.48 64.8862 136.756 64.5487 137.129 64.451V50.9934L124.745 43.845L124.634 43.7828V29.6148L112.584 36.5723V50.0299C112.957 50.1276 113.232 50.465 113.232 50.8691C113.232 50.949 113.219 51.0245 113.197 51.0955L124.963 57.8887L125.074 57.9509V72.887L112.358 65.5477L99.8636 72.7583L87.3694 65.5477L74.8752 72.7583L62.6031 65.672V78.8722C62.9761 78.9698 63.2513 79.3073 63.2513 79.7113C63.2513 80.1908 62.8606 80.5816 62.3811 80.5816C61.9149 80.5949 61.5242 80.2042 61.5242 79.7202ZM50.1223 72.3809L61.7728 79.1075C61.8794 79.0009 62.017 78.921 62.168 78.881V65.4234L61.946 65.2946L50.1178 58.4659V72.3809H50.1223ZM74.6666 44.0448L62.6164 51.0023V64.9128L74.6666 57.9553V44.0448ZM62.1724 51.0023L50.1223 44.0448V57.9553L62.1724 64.9128V51.0023ZM50.1223 43.5342L62.1724 50.4917V36.5812L50.1223 29.6237V43.5342ZM37.6148 22.4131V35.7731C37.9877 35.8708 38.263 36.2082 38.263 36.6122C38.263 36.6389 38.2586 36.6655 38.2541 36.6922L49.6605 43.2767V29.3662L37.6148 22.4131ZM62.1546 7.98756L50.1045 14.945V28.8556L62.1546 21.8981V7.98756ZM74.6666 30.0766C74.5156 30.0366 74.378 29.9611 74.2714 29.8501L62.6209 36.5767V50.4872L74.671 43.5298V30.0766H74.6666ZM99.8725 43.4054L111.923 36.448L106.448 33.2867L99.8725 29.4905L87.8223 36.448L93.2968 39.6092L99.8725 43.4054ZM112.14 22.8616C111.989 22.8216 111.852 22.7461 111.745 22.6351L100.316 29.233L112.145 36.0617V22.8616H112.14ZM100.094 28.8511L111.527 22.2488C111.51 22.1778 111.492 22.1023 111.492 22.0224C111.492 21.9425 111.505 21.867 111.527 21.796L100.094 15.1937V28.8511ZM100.094 43.7873V57.6978L111.527 51.0955C111.51 51.0245 111.492 50.949 111.492 50.8691C111.492 50.465 111.767 50.1276 112.14 50.0299V36.8298L100.094 43.7873ZM112.14 51.7127C111.989 51.6727 111.852 51.5928 111.745 51.4862L100.316 58.0841L112.145 64.9128V51.7127H112.14ZM87.6003 50.7448L99.6505 57.7022V43.7917L87.6003 36.8342V50.7448ZM87.1563 7.7256L75.1061 0.768121V14.6786L87.1563 21.6361V7.7256ZM87.6003 22.1512V36.0617L99.6505 29.1042V15.1937L87.6003 22.1512ZM100.316 14.8118L111.745 21.4097C111.852 21.3031 111.989 21.2232 112.14 21.1832V7.98312L100.316 14.8118ZM125.078 0.777V14.6875L137.129 21.645V7.73004L125.078 0.777ZM162.556 22.4087V36.3192L174.607 43.2767V29.3617L162.556 22.4087ZM187.096 22.4087L175.046 29.3662V43.2767L181.071 39.8002L187.096 36.3236V22.4087ZM175.046 57.6978L181.071 54.2213L186.479 51.1C186.461 51.0289 186.444 50.9534 186.444 50.8735C186.444 50.4695 186.719 50.132 187.092 50.0344V36.8342L181.067 40.3108L175.042 43.7873V57.6978H175.046ZM200.034 43.2767L212.085 36.3192V22.4087L200.034 29.3662V43.2767ZM224.574 15.1937L212.524 22.1512V36.0617L224.574 29.1042V15.1937ZM236.451 36.2215L224.796 29.4949L212.746 36.4524L218.221 39.6137L224.796 43.4099L236.451 36.6833C236.434 36.6122 236.416 36.5368 236.416 36.4568C236.416 36.3769 236.429 36.2926 236.451 36.2215ZM212.524 50.7448L224.574 57.7022V43.7917L212.524 36.8342V50.7448ZM199.59 57.6978V43.7873L187.54 36.8298V50.0299C187.913 50.1276 188.188 50.465 188.188 50.8691C188.188 50.949 188.175 51.0245 188.153 51.0955L199.59 57.6978ZM175.046 72.1234L187.096 65.1659V51.7082C186.945 51.6683 186.808 51.5928 186.701 51.4818L181.076 54.7319L175.051 58.2084V72.1234H175.046ZM162.556 64.9128L174.607 57.9553V44.0448L162.556 51.0023V64.9128ZM150.062 43.2767L162.112 36.3192V22.4087L150.062 29.3662V43.2767ZM149.618 28.8511V14.9406L137.568 7.98312V21.8936L149.618 28.8511ZM125.078 15.1981V29.1042L137.129 36.0617V22.1556L125.078 15.1981ZM149.618 72.1278V58.2173L137.568 51.2598V64.4599C137.941 64.5576 138.216 64.895 138.216 65.2991C138.216 65.379 138.203 65.4545 138.181 65.5255L149.618 72.1278ZM125.078 43.5342L137.129 50.4917V36.5812L125.078 29.6237V43.5342ZM124.634 15.1981L113.201 21.796C113.219 21.867 113.237 21.9425 113.237 22.0224C113.237 22.4264 112.962 22.7639 112.589 22.8616V36.0617L124.639 29.1042V15.1981H124.634ZM124.634 58.2128L112.984 51.4862C112.877 51.5928 112.74 51.6727 112.589 51.7127V65.1703L124.639 72.1278V58.2128H124.634ZM99.8725 72.2521L111.923 65.2946L100.094 58.4659L99.8725 58.3372L99.6505 58.4659L87.8223 65.2946L99.8725 72.2521ZM86.9343 65.2991L74.8841 58.3416L62.834 65.2991L74.8886 72.2521L86.9343 65.2991Z" fill="#E1E1E1"/>
</svg>
